<svg fill="#000000" height="200px" width="200px" version="1.1" id="Capa_1" xmlns="http://www.w3.org/2000/svg" xmlns:xlink="http://www.w3.org/1999/xlink" 
	 viewBox="0 0 493.333 493.333" xml:space="preserve">
<g>
	<path d="M493.333,123.333v74.667c0,12.8-10.453,23.253-23.253,23.253c-12.8,0-23.253-10.453-23.253-23.253v-51.2l-198.4,79.36
		c-3.2,1.28-6.4,1.92-9.813,1.92c-3.2,0-6.4-0.64-9.387-1.92L23.253,146.773v108.8c0,12.8-10.453,23.253-23.253,23.253
		S0,268.373,0,255.573V146.773c0-4.267,1.493-8.32,4.267-11.733c2.773-3.413,6.827-5.333,11.093-5.333h21.333v-8.533
		c0-6.4,2.56-12.587,7.253-17.067l198.4-105.6c6.187-3.413,13.653-3.413,19.84,0l198.4,105.6c4.693,4.48,7.253,10.667,7.253,17.067
		v8.533h21.333c4.267,0,8.32,1.92,11.093,5.333C491.84,115.013,493.333,119.067,493.333,123.333z"/>
	<path d="M246.667,243.013L455.147,160.4l-208-110.933L38.827,160.4L246.667,243.013z"/>
	<path d="M306.773,233.253c-12.8,0-23.253,10.453-23.253,23.253v154.88c0,34.133-27.733,61.867-61.867,61.867
		s-61.867-27.733-61.867-61.867V256.507c0-12.8-10.453-23.253-23.253-23.253s-23.253,10.453-23.253,23.253v154.88
		c0,59.733,48.427,108.373,108.373,108.373s108.373-48.64,108.373-108.373V256.507
		C330.027,243.707,319.573,233.253,306.773,233.253z"/>
</g>
</svg>