<?xml version="1.0" encoding="UTF-8"?>
<svg version="1.1" xmlns="http://www.w3.org/2000/svg" width="415" height="416">
<path d="M0 0 C1.42106645 -0.00067453 2.84213279 -0.0016458 4.26319885 -0.00289917 C7.22422395 -0.00436577 10.18521869 -0.00225289 13.14624023 0.00244141 C16.94837794 0.00817476 20.75044561 0.00483055 24.55258083 -0.00113106 C27.47868891 -0.00473367 30.40478018 -0.00360011 33.33088875 -0.00100327 C34.73397899 -0.00033505 36.13707075 -0.00115876 37.54015923 -0.00348282 C39.49088387 -0.00600831 41.44161386 -0.00147994 43.39233398 0.00341797 C45.0582383 0.00461136 45.0582383 0.00461136 46.75779724 0.00582886 C49.25390625 0.1328125 49.25390625 0.1328125 50.25390625 1.1328125 C50.35170667 3.75043984 50.38385136 6.34166557 50.37416077 8.95973206 C50.3754424 10.20445539 50.3754424 10.20445539 50.37674993 11.47432464 C50.37840728 14.27660569 50.37287922 17.07882791 50.36743164 19.88110352 C50.3671498 21.88122557 50.36730745 23.88134773 50.36787415 25.88146973 C50.36816223 31.32959285 50.3622637 36.77769416 50.35530019 42.2258122 C50.34906851 47.91266092 50.348463 53.59951008 50.34727478 59.28636169 C50.34416091 70.06341209 50.33594678 80.8404524 50.32592529 91.61749834 C50.31268113 106.17474088 50.30726469 120.73198616 50.30142307 135.28923321 C50.29200693 158.23710054 50.27208838 181.18494657 50.25390625 204.1328125 C-16.40609375 204.1328125 -83.06609375 204.1328125 -151.74609375 204.1328125 C-151.74609375 93.67281423 -151.74609375 93.67281423 -116.93359375 52.9453125 C-116.36987061 52.2843457 -115.80614746 51.62337891 -115.2253418 50.94238281 C-114.68949463 50.33104492 -114.15364746 49.71970703 -113.6015625 49.08984375 C-113.12356201 48.54303955 -112.64556152 47.99623535 -112.15307617 47.43286133 C-110.74609375 46.1328125 -110.74609375 46.1328125 -107.74609375 45.1328125 C-107.32263672 44.25109375 -107.32263672 44.25109375 -106.890625 43.3515625 C-105.31391983 40.29501459 -103.12117371 38.75669166 -100.43359375 36.6328125 C-99.01626953 35.50359375 -99.01626953 35.50359375 -97.5703125 34.3515625 C-96.63832031 33.619375 -95.70632812 32.8871875 -94.74609375 32.1328125 C-92.32899298 30.21161619 -89.93619694 28.30055061 -87.62109375 26.2578125 C-83.26383108 23.03722705 -78.54485907 20.6322886 -73.74609375 18.1328125 C-73.14297363 17.81231934 -72.53985352 17.49182617 -71.91845703 17.16162109 C-56.18668001 8.82125674 -40.30622482 3.94517056 -22.74609375 1.1328125 C-21.07909424 0.86476807 -21.07909424 0.86476807 -19.37841797 0.59130859 C-12.9491789 -0.18803268 -6.4656701 -0.01083529 0 0 Z " fill="#F8AA3B" transform="translate(151.74609375,-0.1328125)"/>
<path d="M0 0 C66.99 0 133.98 0 203 0 C203 81.81849315 203 81.81849315 195.5 101.75 C195.21769531 102.54664063 194.93539062 103.34328125 194.64453125 104.1640625 C192.78054748 109.30899508 190.55053631 114.16204646 188 119 C187.51917969 119.92425781 187.03835938 120.84851563 186.54296875 121.80078125 C181.00120255 132.06981775 175.05558245 142.46293446 167 151 C166.34 151 165.68 151 165 151 C164.72905518 151.59546631 164.45811035 152.19093262 164.17895508 152.80444336 C163.01627318 154.96969462 161.86173692 156.39614141 160.13671875 158.12890625 C159.57919922 158.68900391 159.02167969 159.24910156 158.44726562 159.82617188 C157.86654297 160.39916016 157.28582031 160.97214844 156.6875 161.5625 C156.11837891 162.13935547 155.54925781 162.71621094 154.96289062 163.31054688 C151.82487445 166.43415195 148.85068595 168.77472922 145 171 C143.65629101 172.3228763 142.3228763 173.65629101 141 175 C133.23932801 180.69839552 124.5917336 184.86858598 115.95532227 189.04272461 C114.62383817 189.69458491 113.29895185 190.36005725 111.98022461 191.03735352 C107.71780228 193.22580424 103.49235072 195.03412816 98.9375 196.5625 C97.79152344 196.95566406 96.64554687 197.34882813 95.46484375 197.75390625 C62.76946665 206.87886276 38.90073438 202 0 202 C0 135.34 0 68.68 0 0 Z " fill="#4867AC" transform="translate(212,214)"/>
<path d="M0 0 C66.66 0 133.32 0 202 0 C202 66.66 202 133.32 202 202 C101.51765319 202 101.51765319 202 64.5 177.625 C63.84636475 177.19606445 63.19272949 176.76712891 62.51928711 176.32519531 C60.97242634 175.27395922 59.47972229 174.14380832 58 173 C58 172.34 58 171.68 58 171 C57.41605469 170.73316406 56.83210938 170.46632813 56.23046875 170.19140625 C48.97398236 166.3153496 42.38300737 159.11818662 37 153 C37 152.34 37 151.68 37 151 C36.01 150.67 35.02 150.34 34 150 C32.97388051 148.34928604 31.97691857 146.68029994 31 145 C30.360625 144.360625 29.72125 143.72125 29.0625 143.0625 C18.05505456 132.05505456 11.57062099 115.62794725 6.375 101.25 C6.0855249 100.46488037 5.7960498 99.67976074 5.49780273 98.87084961 C-5.69962422 66.99728851 0 33.65481636 0 0 Z " fill="#1E9B8B" transform="translate(0,214)"/>
<path d="M0 0 C2.72820954 0.11521565 5.45591237 0.23349646 8.18334961 0.3659668 C9.54943359 0.41914062 9.54943359 0.41914062 10.94311523 0.47338867 C24.93532834 1.11859052 37.94834855 3.11759577 51.37084961 7.1784668 C52.03894653 7.37699249 52.70704346 7.57551819 53.39538574 7.78005981 C69.20322781 12.48526668 83.97944321 18.2257027 98.50024414 26.05224609 C117.65206948 36.29502134 136.7167723 44.07212381 158.12084961 48.0534668 C159.07233887 48.23304932 160.02382813 48.41263184 161.00415039 48.59765625 C164.38960259 49.09277134 167.6733772 49.24791502 171.09350586 49.3347168 C173.0609375 49.39079102 173.0609375 49.39079102 175.06811523 49.44799805 C177.13067167 49.50159649 179.19326199 49.55371668 181.25585938 49.60571289 C183.26433442 49.65774469 185.2726741 49.71492056 187.28100586 49.7722168 C188.47346924 49.80250977 189.66593262 49.83280273 190.89453125 49.86401367 C193.7637242 50.03249598 196.3573206 50.26722778 199.12084961 51.0534668 C200.62241835 54.05660427 200.21366165 56.84414202 200.18334961 60.1784668 C200.17432617 61.45979492 200.16530273 62.74112305 200.15600586 64.0612793 C200.13860352 65.54241211 200.13860352 65.54241211 200.12084961 67.0534668 C197.37338634 67.96928789 195.74016853 68.18196206 192.90991211 68.1862793 C192.07588867 68.18756836 191.24186523 68.18885742 190.38256836 68.19018555 C189.51245117 68.18631836 188.64233398 68.18245117 187.74584961 68.1784668 C186.9144043 68.18233398 186.08295898 68.18620117 185.22631836 68.19018555 C172.69760248 68.17111596 160.76909676 66.6634762 148.55834961 63.9284668 C147.86008057 63.77418213 147.16181152 63.61989746 146.44238281 63.4609375 C130.33376945 59.8789994 115.25639288 54.68482367 100.23413086 47.89331055 C94.61744925 45.35795464 88.92283532 43.00672082 83.23779297 40.62988281 C82.08549194 40.14733032 82.08549194 40.14733032 80.90991211 39.6550293 C80.22622559 39.36966309 79.54253906 39.08429688 78.83813477 38.7902832 C77.58126777 38.25101329 76.34413263 37.66510831 75.12084961 37.0534668 C74.71866211 35.1662793 74.71866211 35.1662793 74.30834961 33.2409668 C73.58511155 30.1658248 73.11594778 29.04769994 70.99584961 26.5534668 C67.24148684 24.59466883 64.27325573 24.19781947 60.12084961 25.0534668 C57.31081501 26.84710591 55.61144493 28.07227615 54.12084961 31.0534668 C53.58719448 36.86692626 53.58719448 36.86692626 55.99584961 41.9909668 C59.1851145 45.08642978 60.91078252 45.17154458 65.24584961 45.1159668 C66.15592773 45.10694336 67.06600586 45.09791992 68.00366211 45.08862305 C68.70233398 45.07702148 69.40100586 45.06541992 70.12084961 45.0534668 C70.12084961 44.3934668 70.12084961 43.7334668 70.12084961 43.0534668 C71.74584961 41.3659668 71.74584961 41.3659668 74.12084961 40.0534668 C78.48278284 40.45554444 81.84237038 41.68527019 85.74584961 43.6159668 C93.91058816 47.4981743 102.2743077 50.81468897 110.69311523 54.1027832 C112.89706492 54.9658343 115.0951577 55.84230241 117.29272461 56.72143555 C140.9759202 66.06680802 164.88066475 69.18871588 190.24560547 69.76342773 C191.38779541 69.78953125 192.52998535 69.81563477 193.70678711 69.8425293 C195.23891846 69.86887451 195.23891846 69.86887451 196.80200195 69.89575195 C199.12084961 70.0534668 199.12084961 70.0534668 200.12084961 71.0534668 C200.21411677 72.61893728 200.23830543 74.18859452 200.234375 75.75683594 C200.23429947 76.757798 200.23422394 77.75876007 200.23414612 78.79005432 C200.22898483 79.878582 200.22382355 80.96710968 200.21850586 82.08862305 C200.21638344 83.75120399 200.21638344 83.75120399 200.21421814 85.44737244 C200.20859994 89.00359749 200.19604436 92.55976063 200.18334961 96.1159668 C200.17833695 98.52026277 200.17377364 100.92455972 200.16967773 103.32885742 C200.1586246 109.23708184 200.14186878 115.1452699 200.12084961 121.0534668 C173.80059307 121.07679251 147.48033807 121.09444436 121.16007328 121.10527897 C108.94004535 121.11044262 96.72002382 121.11748664 84.5 121.12890625 C73.85319831 121.13885097 63.20640126 121.14531972 52.55959505 121.14755529 C46.91844289 121.14886276 41.277304 121.15195088 35.63615608 121.15919685 C30.33311537 121.16595373 25.03009348 121.16808444 19.72704887 121.16657448 C17.77466098 121.16685096 15.82227249 121.16885804 13.86988831 121.17267227 C11.2165037 121.17760433 8.56319137 121.1764669 5.9098053 121.17372131 C5.12674658 121.17663415 4.34368787 121.179547 3.5369001 121.18254811 C-1.76502918 121.16758801 -1.76502918 121.16758801 -2.87915039 120.0534668 C-2.97716692 118.51225839 -3.00546885 116.96656312 -3.00613403 115.42224121 C-3.00895386 114.42102737 -3.01177368 113.41981354 -3.01467896 112.38825989 C-3.01265472 111.28068832 -3.01063049 110.17311676 -3.00854492 109.03198242 C-3.01029724 107.87276779 -3.01204956 106.71355316 -3.01385498 105.51921082 C-3.01827634 101.66603116 -3.0153345 97.81289696 -3.01196289 93.9597168 C-3.01263585 91.29553164 -3.01360409 88.63134789 -3.01486206 85.96716309 C-3.01668361 80.37499494 -3.01427784 74.78283998 -3.00952148 69.19067383 C-3.00407889 62.71674178 -3.00584156 56.24284122 -3.01134789 49.76890993 C-3.01587945 44.21987274 -3.01652936 38.67084506 -3.01390922 33.12180662 C-3.01234668 29.80351371 -3.01254213 26.48523894 -3.01544571 23.16694641 C-3.01797056 19.46959266 -3.014134 15.77230032 -3.00854492 12.07495117 C-3.01056915 10.96737961 -3.01259338 9.85980804 -3.01467896 8.71867371 C-3.01185913 7.71745987 -3.00903931 6.71624603 -3.00613403 5.68469238 C-3.00575701 4.80936607 -3.00537998 3.93403976 -3.00499153 3.03218842 C-2.83861593 0.41610431 -2.63203189 0.07488827 0 0 Z " fill="#786DAE" transform="translate(214.879150390625,82.946533203125)"/>
<path d="M0 0 C1.10618179 -0.00637985 2.21236359 -0.0127597 3.35206604 -0.01933289 C4.55709274 -0.02044571 5.76211945 -0.02155853 7.00366211 -0.02270508 C8.24788437 -0.02603348 9.49210663 -0.02936188 10.77403259 -0.03279114 C13.42133122 -0.03786713 16.0685274 -0.04063066 18.71582031 -0.04003906 C22.71223669 -0.03991924 26.70846304 -0.06027408 30.70483398 -0.0793457 C43.85847853 -0.10846174 56.71358014 0.04512427 69.71850586 2.14526367 C71.00563477 2.34700195 72.29276367 2.54874023 73.61889648 2.7565918 C99.84800294 7.10599394 123.22285769 20.80854676 143.71850586 37.14526367 C144.42233398 37.70342773 145.12616211 38.2615918 145.85131836 38.83666992 C149.5762724 41.90182268 152.72809283 45.27937219 155.83959961 48.96166992 C157.14795472 50.48219072 158.49819094 51.96724632 159.87866211 53.42260742 C165.89630192 59.79119021 170.33186401 66.58301606 174.71850586 74.14526367 C175.33854492 75.15975586 175.95858398 76.17424805 176.59741211 77.21948242 C182.76295026 87.40660269 189.71850586 99.94076177 189.71850586 112.14526367 C163.73552186 118.55132481 132.69364515 108.07419859 109.46850586 97.20776367 C107.79014648 96.43916016 107.79014648 96.43916016 106.07788086 95.6550293 C100.71218729 93.16517031 95.58640906 90.58992153 90.63208008 87.35791016 C83.96771437 83.1346511 76.73438462 79.74042578 69.71850586 76.14526367 C68.75944336 75.64639648 67.80038086 75.1475293 66.81225586 74.63354492 C60.72680681 71.65997323 54.33719598 69.60398879 47.90600586 67.52026367 C47.01679443 67.23062744 46.12758301 66.94099121 45.21142578 66.64257812 C32.7742572 62.73227564 20.37164885 60.68631026 7.40600586 59.52026367 C4.82621942 59.28193451 2.24676604 59.03996149 -0.33227539 58.79370117 C-1.45287354 58.69234863 -2.57347168 58.59099609 -3.72802734 58.48657227 C-6.28149414 58.14526367 -6.28149414 58.14526367 -7.28149414 57.14526367 C-7.37514421 55.39597647 -7.39893852 53.64290113 -7.39501953 51.89111328 C-7.394944 50.7700267 -7.39486847 49.64894012 -7.39479065 48.49388123 C-7.38962936 47.27411087 -7.38446808 46.05434052 -7.37915039 44.79760742 C-7.37773544 43.55604385 -7.3763205 42.31448029 -7.37486267 41.03529358 C-7.37020005 37.72920877 -7.36120911 34.42319221 -7.35015869 31.11712646 C-7.33994241 27.74565217 -7.33536459 24.37417084 -7.33032227 21.00268555 C-7.31926809 14.38352593 -7.3025115 7.76439874 -7.28149414 1.14526367 C-4.71406866 -0.13844907 -2.87488823 0.01124355 0 0 Z " fill="#786EAE" transform="translate(219.281494140625,-0.145263671875)"/>
<path d="M0 0 C5.54781825 1.23026932 10.29444518 4.54351783 15.05566406 7.54101562 C17.92437539 9.31650232 20.86358663 10.96191511 23.80078125 12.62109375 C23.80078125 13.28109375 23.80078125 13.94109375 23.80078125 14.62109375 C26.27578125 15.11609375 26.27578125 15.11609375 28.80078125 15.62109375 C28.80078125 16.28109375 28.80078125 16.94109375 28.80078125 17.62109375 C29.74953125 17.82734375 30.69828125 18.03359375 31.67578125 18.24609375 C38.16927904 20.0881268 44.07966728 23.85868723 48.80078125 28.62109375 C50.90411016 29.33557018 50.90411016 29.33557018 52.80078125 29.62109375 C52.80078125 30.28109375 52.80078125 30.94109375 52.80078125 31.62109375 C53.74953125 31.88921875 54.69828125 32.15734375 55.67578125 32.43359375 C58.80078125 33.62109375 58.80078125 33.62109375 60.80078125 36.62109375 C61.45837145 42.64900389 61.45837145 42.64900389 59.36328125 45.74609375 C49.96744792 52.62109375 49.96744792 52.62109375 45.80078125 52.62109375 C45.63578125 53.23984375 45.47078125 53.85859375 45.30078125 54.49609375 C42.8989675 57.89866324 39.79915991 57.84721401 35.80078125 58.62109375 C35.80078125 59.28109375 35.80078125 59.94109375 35.80078125 60.62109375 C33.49078125 61.28109375 31.18078125 61.94109375 28.80078125 62.62109375 C28.80078125 63.28109375 28.80078125 63.94109375 28.80078125 64.62109375 C26.32578125 65.11609375 26.32578125 65.11609375 23.80078125 65.62109375 C23.80078125 66.28109375 23.80078125 66.94109375 23.80078125 67.62109375 C22.36783627 68.46223546 20.9292372 69.29375062 19.48828125 70.12109375 C18.68777344 70.58515625 17.88726562 71.04921875 17.0625 71.52734375 C14.80078125 72.62109375 14.80078125 72.62109375 11.80078125 72.62109375 C11.80078125 73.28109375 11.80078125 73.94109375 11.80078125 74.62109375 C5.05078125 78.62109375 5.05078125 78.62109375 2.80078125 78.62109375 C2.80078125 79.28109375 2.80078125 79.94109375 2.80078125 80.62109375 C1.56328125 80.72421875 0.32578125 80.82734375 -0.94921875 80.93359375 C-1.6453125 80.99160156 -2.34140625 81.04960937 -3.05859375 81.109375 C-6.41970526 80.34269811 -7.35546818 78.45348865 -9.19921875 75.62109375 C-9.70042419 72.30661011 -9.70042419 72.30661011 -9.70092773 68.49169922 C-9.70633072 67.79353088 -9.7117337 67.09536255 -9.71730042 66.3760376 C-9.72975816 64.07968111 -9.71332149 61.78458543 -9.6953125 59.48828125 C-9.69546752 57.88835586 -9.69695706 56.28843009 -9.69972229 54.68850708 C-9.70110483 51.34115936 -9.68857028 47.9942409 -9.66577148 44.64697266 C-9.63734091 40.35487255 -9.64013837 36.06348296 -9.6528616 31.77132988 C-9.65981208 28.47020385 -9.65203756 25.16924238 -9.63960457 21.86813736 C-9.63508714 20.28528601 -9.63475582 18.70241702 -9.63866997 17.11956406 C-9.64157728 14.90990624 -9.62510159 12.70123269 -9.60327148 10.49169922 C-9.5978685 9.23436981 -9.59246552 7.97704041 -9.5868988 6.68161011 C-9.19921875 3.62109375 -9.19921875 3.62109375 -7.9122467 1.73464966 C-5.38792987 0.09371443 -2.95759994 -0.08229001 0 0 Z " fill="#FCFBF8" transform="translate(88.19921875,68.37890625)"/>
<path d="M0 0 C28.18290266 0.3070033 55.12107617 8.27381403 79.5625 22.1875 C82.6551173 23.85537268 85.76409737 25.49153667 88.875 27.125 C89.68042236 27.549021 90.48584473 27.97304199 91.31567383 28.40991211 C99.00949104 32.44779652 106.77519329 36.33389565 114.5625 40.1875 C115.51511719 40.69410156 116.46773438 41.20070312 117.44921875 41.72265625 C138.24930198 51.50939554 162.57040534 54.70671513 185.35864258 54.2019043 C190.38089451 54.09669726 190.38089451 54.09669726 192.5625 55.1875 C194.20771986 58.84354413 194.6676812 61.95331498 194.6171875 65.90625 C194.60929199 66.70998047 194.60139648 67.51371094 194.59326172 68.34179688 C194.58311035 68.95087891 194.57295898 69.55996094 194.5625 70.1875 C172.67658052 70.84978341 151.30660831 69.79155197 130.5625 62.1875 C129.82515625 61.93097656 129.0878125 61.67445312 128.328125 61.41015625 C121.51783167 58.96848132 114.99323513 55.92940458 108.54467773 52.66015625 C84.72919624 40.46492847 84.72919624 40.46492847 59.7109375 31.15234375 C56.5625 30.1875 56.5625 30.1875 52.98046875 28.73046875 C47.33398171 26.58099978 41.42411627 25.64630219 35.5 24.5625 C34.35466797 24.3459375 33.20933594 24.129375 32.02929688 23.90625 C21.87952377 22.00426823 12.08251626 20.95514804 1.7734375 20.58203125 C0.40445313 20.52595703 0.40445313 20.52595703 -0.9921875 20.46875 C-1.82218262 20.43845703 -2.65217773 20.40816406 -3.50732422 20.37695312 C-5.4375 20.1875 -5.4375 20.1875 -6.4375 19.1875 C-6.5358721 17.85706375 -6.56828592 16.52156656 -6.5703125 15.1875 C-6.57160156 14.383125 -6.57289063 13.57875 -6.57421875 12.75 C-6.57035156 11.904375 -6.56648437 11.05875 -6.5625 10.1875 C-6.56636719 9.341875 -6.57023438 8.49625 -6.57421875 7.625 C-6.57292969 6.820625 -6.57164062 6.01625 -6.5703125 5.1875 C-6.56918457 4.445 -6.56805664 3.7025 -6.56689453 2.9375 C-6.28055243 -0.93514179 -3.21578655 0.02007357 0 0 Z " fill="#8379B3" transform="translate(218.4375,60.8125)"/>
<path d="M0 0 C2.97915183 0.01930069 5.95824339 0.02316945 8.93744946 0.02671432 C12.49916059 0.03184097 16.06081601 0.04635252 19.62249756 0.06115723 C20.63604341 0.06397831 20.63604341 0.06397831 21.67006493 0.06685638 C23.56203171 0.0736859 25.4539661 0.08821005 27.34588623 0.10314941 C28.42029465 0.10997742 29.49470306 0.11680542 30.60166931 0.12384033 C33.01702881 0.26428223 33.01702881 0.26428223 34.01702881 1.26428223 C34.11482923 3.88190957 34.14697392 6.4731353 34.13728333 9.09120178 C34.13856496 10.33592511 34.13856496 10.33592511 34.13987249 11.60579437 C34.14152984 14.40807542 34.13600178 17.21029763 34.1305542 20.01257324 C34.13027236 22.0126953 34.13043 24.01281746 34.1309967 26.01293945 C34.13128479 31.46106258 34.12538626 36.90916389 34.11842275 42.35728192 C34.11219107 48.04413065 34.11158556 53.73097981 34.11039734 59.41783142 C34.10728347 70.19488182 34.09906934 80.97192212 34.08904785 91.74896806 C34.07580369 106.30621061 34.07038725 120.86345589 34.06454563 135.42070293 C34.05512948 158.36857026 34.03521094 181.3164163 34.01702881 204.26428223 C-32.64297119 204.26428223 -99.30297119 204.26428223 -167.98297119 204.26428223 C-167.98297119 203.60428223 -167.98297119 202.94428223 -167.98297119 202.26428223 C-101.98297119 202.26428223 -35.98297119 202.26428223 32.01702881 202.26428223 C32.01702881 136.26428223 32.01702881 70.26428223 32.01702881 2.26428223 C-7.56178991 2.52519266 -7.56178991 2.52519266 -46.98297119 5.26428223 C-49.29297119 5.26428223 -51.60297119 5.26428223 -53.98297119 5.26428223 C-40.31035646 -3.85079426 -15.97334542 -0.12402151 0 0 Z " fill="#FBD28E" transform="translate(167.98297119140625,-0.2642822265625)"/>
<path d="M0 0 C1.2219104 0.05160278 1.2219104 0.05160278 2.46850586 0.10424805 C3.83108521 0.16116821 3.83108521 0.16116821 5.22119141 0.21923828 C6.68745972 0.2918689 6.68745972 0.2918689 8.18334961 0.3659668 C9.17310791 0.41374268 10.16286621 0.46151855 11.18261719 0.51074219 C34.12661214 1.72397515 34.12661214 1.72397515 39.12084961 5.0534668 C31.37084961 5.1784668 31.37084961 5.1784668 29.12084961 4.0534668 C19.22084961 3.3934668 9.32084961 2.7334668 -0.87915039 2.0534668 C-0.87915039 40.6634668 -0.87915039 79.2734668 -0.87915039 119.0534668 C65.12084961 119.0534668 131.12084961 119.0534668 199.12084961 119.0534668 C199.12084961 103.5434668 199.12084961 88.0334668 199.12084961 72.0534668 C190.02731247 72.09277168 190.02731247 72.09277168 180.93383789 72.14355469 C171.55357394 72.163881 162.59639719 71.92483417 153.49584961 69.4909668 C152.47233398 69.22155273 151.44881836 68.95213867 150.39428711 68.67456055 C149.64405273 68.46959961 148.89381836 68.26463867 148.12084961 68.0534668 C148.12084961 67.7234668 148.12084961 67.3934668 148.12084961 67.0534668 C150.26684204 67.19693997 152.4126363 67.34337805 154.55834961 67.4909668 C156.35079102 67.6127832 156.35079102 67.6127832 158.17944336 67.73706055 C160.87365942 67.95334548 163.51065007 68.22115992 166.18725586 68.55737305 C173.92568143 69.44438625 181.73984572 69.4484697 189.51928711 69.65893555 C190.73874023 69.69631836 191.95819336 69.73370117 193.21459961 69.7722168 C194.32512695 69.80250977 195.4356543 69.83280273 196.57983398 69.86401367 C199.12084961 70.0534668 199.12084961 70.0534668 200.12084961 71.0534668 C200.21411677 72.61893728 200.23830543 74.18859452 200.234375 75.75683594 C200.23429947 76.757798 200.23422394 77.75876007 200.23414612 78.79005432 C200.22898483 79.878582 200.22382355 80.96710968 200.21850586 82.08862305 C200.21638344 83.75120399 200.21638344 83.75120399 200.21421814 85.44737244 C200.20859994 89.00359749 200.19604436 92.55976063 200.18334961 96.1159668 C200.17833695 98.52026277 200.17377364 100.92455972 200.16967773 103.32885742 C200.1586246 109.23708184 200.14186878 115.1452699 200.12084961 121.0534668 C173.80059307 121.07679251 147.48033807 121.09444436 121.16007328 121.10527897 C108.94004535 121.11044262 96.72002382 121.11748664 84.5 121.12890625 C73.85319831 121.13885097 63.20640126 121.14531972 52.55959505 121.14755529 C46.91844289 121.14886276 41.277304 121.15195088 35.63615608 121.15919685 C30.33311537 121.16595373 25.03009348 121.16808444 19.72704887 121.16657448 C17.77466098 121.16685096 15.82227249 121.16885804 13.86988831 121.17267227 C11.2165037 121.17760433 8.56319137 121.1764669 5.9098053 121.17372131 C5.12674658 121.17663415 4.34368787 121.179547 3.5369001 121.18254811 C-1.76502918 121.16758801 -1.76502918 121.16758801 -2.87915039 120.0534668 C-2.97716692 118.51225839 -3.00546885 116.96656312 -3.00613403 115.42224121 C-3.00895386 114.42102737 -3.01177368 113.41981354 -3.01467896 112.38825989 C-3.01265472 111.28068832 -3.01063049 110.17311676 -3.00854492 109.03198242 C-3.01029724 107.87276779 -3.01204956 106.71355316 -3.01385498 105.51921082 C-3.01827634 101.66603116 -3.0153345 97.81289696 -3.01196289 93.9597168 C-3.01263585 91.29553164 -3.01360409 88.63134789 -3.01486206 85.96716309 C-3.01668361 80.37499494 -3.01427784 74.78283998 -3.00952148 69.19067383 C-3.00407889 62.71674178 -3.00584156 56.24284122 -3.01134789 49.76890993 C-3.01587945 44.21987274 -3.01652936 38.67084506 -3.01390922 33.12180662 C-3.01234668 29.80351371 -3.01254213 26.48523894 -3.01544571 23.16694641 C-3.01797056 19.46959266 -3.014134 15.77230032 -3.00854492 12.07495117 C-3.01056915 10.96737961 -3.01259338 9.85980804 -3.01467896 8.71867371 C-3.01185913 7.71745987 -3.00903931 6.71624603 -3.00613403 5.68469238 C-3.00575701 4.80936607 -3.00537998 3.93403976 -3.00499153 3.03218842 C-2.83861593 0.41610431 -2.63203189 0.07488827 0 0 Z " fill="#BBB5D3" transform="translate(214.879150390625,82.946533203125)"/>
<path d="M0 0 C1.10618179 -0.00637985 2.21236359 -0.0127597 3.35206604 -0.01933289 C4.55709274 -0.02044571 5.76211945 -0.02155853 7.00366211 -0.02270508 C8.24788437 -0.02603348 9.49210663 -0.02936188 10.77403259 -0.03279114 C13.42133122 -0.03786713 16.0685274 -0.04063066 18.71582031 -0.04003906 C22.71223669 -0.03991924 26.70846304 -0.06027408 30.70483398 -0.0793457 C43.84470667 -0.10744017 56.72758719 0.04573328 69.71850586 2.14526367 C69.71850586 2.47526367 69.71850586 2.80526367 69.71850586 3.14526367 C44.96850586 2.81526367 20.21850586 2.48526367 -5.28149414 2.14526367 C-5.28149414 20.29526367 -5.28149414 38.44526367 -5.28149414 57.14526367 C0.65850586 57.14526367 6.59850586 57.14526367 12.71850586 57.14526367 C19.61475911 57.98480755 26.12283072 58.99783456 32.71850586 61.14526367 C32.71850586 61.47526367 32.71850586 61.80526367 32.71850586 62.14526367 C32.17137939 62.09047852 31.62425293 62.03569336 31.06054688 61.97924805 C30.2683374 61.8999707 29.47612793 61.82069336 28.65991211 61.73901367 C27.28923584 61.60172852 27.28923584 61.60172852 25.89086914 61.46166992 C23.65760866 61.23892823 21.4241956 61.01771365 19.19067383 60.79760742 C15.34534067 60.41782143 11.50066239 60.03183441 7.65600586 59.64526367 C6.98899658 59.58000488 6.3219873 59.51474609 5.63476562 59.44750977 C3.69221673 59.25715178 1.75026908 59.06068889 -0.19165039 58.86401367 C-1.91073608 58.69289063 -1.91073608 58.69289063 -3.66455078 58.51831055 C-6.28149414 58.14526367 -6.28149414 58.14526367 -7.28149414 57.14526367 C-7.37514421 55.39597647 -7.39893852 53.64290113 -7.39501953 51.89111328 C-7.394944 50.7700267 -7.39486847 49.64894012 -7.39479065 48.49388123 C-7.38962936 47.27411087 -7.38446808 46.05434052 -7.37915039 44.79760742 C-7.37773544 43.55604385 -7.3763205 42.31448029 -7.37486267 41.03529358 C-7.37020005 37.72920877 -7.36120911 34.42319221 -7.35015869 31.11712646 C-7.33994241 27.74565217 -7.33536459 24.37417084 -7.33032227 21.00268555 C-7.31926809 14.38352593 -7.3025115 7.76439874 -7.28149414 1.14526367 C-4.71406866 -0.13844907 -2.87488823 0.01124355 0 0 Z " fill="#B1ABCF" transform="translate(219.281494140625,-0.145263671875)"/>
<path d="M0 0 C2.14599243 0.14347318 4.29178669 0.28991125 6.4375 0.4375 C7.63246094 0.51871094 8.82742188 0.59992188 10.05859375 0.68359375 C12.75280981 0.89987869 15.38980046 1.16769312 18.06640625 1.50390625 C25.80483182 2.39091946 33.61899611 2.3950029 41.3984375 2.60546875 C42.61789062 2.64285156 43.83734375 2.68023437 45.09375 2.71875 C46.75954102 2.76418945 46.75954102 2.76418945 48.45898438 2.81054688 C51 3 51 3 52 4 C52.09319449 5.5348297 52.117458 7.07392082 52.11352539 8.61157227 C52.11340454 9.6062854 52.11328369 10.60099854 52.11315918 11.62585449 C52.10804321 12.67873657 52.10292725 13.73161865 52.09765625 14.81640625 C52.09664917 15.77865112 52.09564209 16.740896 52.09460449 17.7322998 C52.0893546 21.34237858 52.07539348 24.95244043 52.0625 28.5625 C52.041875 36.626875 52.02125 44.69125 52 53 C20.32 53 -11.36 53 -44 53 C-44 52.67 -44 52.34 -44 52 C-12.65 52 18.7 52 51 52 C51 36.49 51 20.98 51 5 C41.90646286 5.03930488 41.90646286 5.03930488 32.81298828 5.09008789 C23.43272433 5.1104142 14.47554758 4.87136738 5.375 2.4375 C4.35148437 2.16808594 3.32796875 1.89867187 2.2734375 1.62109375 C1.52320313 1.41613281 0.77296875 1.21117187 0 1 C0 0.67 0 0.34 0 0 Z " fill="#9F97C4" transform="translate(363,150)"/>
<path d="M0 0 C3.32878632 2.46040728 4.79301948 3.89610387 5.5625 8 C4.84909176 11.80484394 3.9236459 13.4511805 1 16 C-2.4375 16.625 -2.4375 16.625 -6 16 C-9.72536415 13.38431879 -10.83515672 11.9396067 -11.625 7.4375 C-11 4 -11 4 -8.875 1.5625 C-5.46537255 -0.29055839 -3.81804737 -0.71588388 0 0 Z " fill="#9186BB" transform="translate(282,110)"/>
<path d="M0 0 C3.7283811 0.03121752 7.4568274 0.04450133 11.18530273 0.05950928 C18.44328759 0.09125955 25.70095889 0.14215536 32.95874023 0.20599365 C32.62874023 0.86599365 32.29874023 1.52599365 31.95874023 2.20599365 C31.2344986 2.21408051 30.51025696 2.22216736 29.7640686 2.23049927 C22.85295767 2.3092705 15.94200344 2.39678937 9.03112221 2.49352074 C5.48033981 2.54292883 1.92957955 2.58925034 -1.62133789 2.62786865 C-22.62957011 2.82551988 -22.62957011 2.82551988 -43.53198242 4.79046631 C-47.06945361 5.20933204 -50.48268946 5.27644338 -54.04125977 5.20599365 C-40.33955603 -3.92847551 -15.9967051 -0.14854721 0 0 Z " fill="#FBD59B" transform="translate(168.041259765625,-0.20599365234375)"/>
<path d="M0 0 C7.54358173 0.01789699 14.97476118 0.37547984 22.48046875 1.1328125 C22.48046875 1.4628125 22.48046875 1.7928125 22.48046875 2.1328125 C14.56046875 2.1328125 6.64046875 2.1328125 -1.51953125 2.1328125 C-1.51953125 7.4128125 -1.51953125 12.6928125 -1.51953125 18.1328125 C4.75046875 18.1328125 11.02046875 18.1328125 17.48046875 18.1328125 C17.48046875 18.7928125 17.48046875 19.4528125 17.48046875 20.1328125 C14.16798688 20.16169396 10.85553708 20.17957049 7.54296875 20.1953125 C6.59744141 20.20369141 5.65191406 20.21207031 4.67773438 20.22070312 C3.32905273 20.22553711 3.32905273 20.22553711 1.953125 20.23046875 C0.70414429 20.23832397 0.70414429 20.23832397 -0.57006836 20.24633789 C-2.51953125 20.1328125 -2.51953125 20.1328125 -3.51953125 19.1328125 C-3.61790335 17.80237625 -3.65031717 16.46687906 -3.65234375 15.1328125 C-3.65363281 14.3284375 -3.65492188 13.5240625 -3.65625 12.6953125 C-3.65238281 11.8496875 -3.64851562 11.0040625 -3.64453125 10.1328125 C-3.64839844 9.2871875 -3.65226563 8.4415625 -3.65625 7.5703125 C-3.65496094 6.7659375 -3.65367187 5.9615625 -3.65234375 5.1328125 C-3.65121582 4.3903125 -3.65008789 3.6478125 -3.64892578 2.8828125 C-3.43864573 0.03887404 -2.85181601 0.15032829 0 0 Z " fill="#B9B3D4" transform="translate(215.51953125,60.8671875)"/>
<path d="M0 0 C0.33 0 0.66 0 1 0 C1 4.62 1 9.24 1 14 C-1.74746327 14.91582109 -3.38068108 15.12849526 -6.2109375 15.1328125 C-7.45073364 15.13595459 -7.45073364 15.13595459 -8.71557617 15.13916016 C-9.59318604 15.1344873 -10.4707959 15.12981445 -11.375 15.125 C-12.27387939 15.12161621 -13.17275879 15.11823242 -14.09887695 15.11474609 C-24.29336511 15.03620753 -34.09032608 14.51940862 -44 12 C-44 11.67 -44 11.34 -44 11 C-34.56856021 10.81599684 -25.21754666 11.39407547 -15.8125 12 C-14.27280605 12.09666676 -12.73309258 12.19302313 -11.19335938 12.2890625 C-7.46200807 12.52246905 -3.7309373 12.76005603 0 13 C0 8.71 0 4.42 0 0 Z " fill="#BAB2D3" transform="translate(414,136)"/>
<path d="M0 0 C2.14599243 0.14347318 4.29178669 0.28991125 6.4375 0.4375 C7.63246094 0.51871094 8.82742188 0.59992188 10.05859375 0.68359375 C12.75068758 0.89970832 15.38758614 1.16590872 18.0625 1.5 C24.54000759 2.24125554 31.05034923 2.35930757 37.5625 2.5625 C39.50479492 2.62727539 39.50479492 2.62727539 41.48632812 2.69335938 C44.65746384 2.79867385 47.82866793 2.90080617 51 3 C51 3.66 51 4.32 51 5 C47.05306991 5.02501955 43.10617158 5.04300863 39.15917969 5.05493164 C37.16860325 5.06233777 35.17804883 5.07505474 33.1875 5.08789062 C23.6817476 5.11189505 14.59861183 4.90427991 5.375 2.4375 C4.35148437 2.16808594 3.32796875 1.89867187 2.2734375 1.62109375 C1.52320313 1.41613281 0.77296875 1.21117187 0 1 C0 0.67 0 0.34 0 0 Z " fill="#BEB7D7" transform="translate(363,150)"/>
<path d="M0 0 C1.62521995 0.29043855 3.25016079 0.58243892 4.875 0.875 C5.89464844 1.05804688 6.91429687 1.24109375 7.96484375 1.4296875 C10.47305664 1.90098619 12.94872897 2.43902478 15.4375 3 C27.68316403 5.44913281 40.32711799 6.34986617 52.79516602 5.92626953 C54.52971142 5.88166876 56.26619457 5.93250392 58 6 C58.66 6.66 59.32 7.32 60 8 C29.53965279 8.60216623 29.53965279 8.60216623 15 5 C13.65771665 4.72706026 12.31389203 4.46160832 10.96875 4.203125 C3.73246373 2.78481289 3.73246373 2.78481289 1 2 C0.67 1.34 0.34 0.68 0 0 Z " fill="#CAC3DC" transform="translate(351,109)"/>
<path d="M0 0 C0.33 0 0.66 0 1 0 C1.03738281 0.84820312 1.07476562 1.69640625 1.11328125 2.5703125 C1.67862086 12.65774471 3.20782415 22.31605348 6.1875 32 C7.03444722 35.12718975 7.1572853 37.77565143 7 41 C4.67688073 37.5153211 3.88758955 34.13488366 2.9375 30.125 C2.76412109 29.41730469 2.59074219 28.70960938 2.41210938 27.98046875 C1.92841436 25.99009158 1.46365922 23.99513966 1 22 C0.79632813 21.18917969 0.59265625 20.37835938 0.3828125 19.54296875 C-0.18706364 15.75736293 -0.10414356 12.00909722 -0.0625 8.1875 C-0.05573242 7.00510742 -0.05573242 7.00510742 -0.04882812 5.79882812 C-0.03711312 3.86585239 -0.01917998 1.93291607 0 0 Z " fill="#88C4BD" transform="translate(0,273)"/>
<path d="M0 0 C13.33173343 -0.25340148 26.17818367 -0.17454485 39 4 C39 4.33 39 4.66 39 5 C30.62237607 4.17113157 22.24863684 3.30560025 13.875 2.4375 C12.52343917 2.29750996 11.17187668 2.15753589 9.8203125 2.01757812 C6.54685876 1.67854184 3.27342171 1.33934536 0 1 C0 0.67 0 0.34 0 0 Z " fill="#C1BBDB" transform="translate(213,57)"/>
<path d="M0 0 C0.66 0.33 1.32 0.66 2 1 C0.44523615 2.77816682 -1.11816024 4.54727102 -2.6875 6.3125 C-3.55761719 7.29863281 -4.42773438 8.28476562 -5.32421875 9.30078125 C-7.78593012 11.78405505 -9.97960654 13.30361463 -13 15 C-14.78344178 17.06954847 -14.78344178 17.06954847 -16 19 C-16.66 18.67 -17.32 18.34 -18 18 C-17.04882866 16.8274869 -16.08882991 15.66212985 -15.125 14.5 C-14.59132812 13.8503125 -14.05765625 13.200625 -13.5078125 12.53125 C-12.76144531 11.77328125 -12.76144531 11.77328125 -12 11 C-11.34 11 -10.68 11 -10 11 C-9.75507812 10.41734375 -9.51015625 9.8346875 -9.2578125 9.234375 C-7.79564126 6.63697764 -6.15259586 5.16024169 -3.875 3.25 C-3.15054688 2.63640625 -2.42609375 2.0228125 -1.6796875 1.390625 C-1.12539063 0.93171875 -0.57109375 0.4728125 0 0 Z " fill="#FBD6A2" transform="translate(54,34)"/>
<path d="M0 0 C0.66 0.33 1.32 0.66 2 1 C-9.14285714 9 -9.14285714 9 -15 9 C-15.33 9.99 -15.66 10.98 -16 12 C-17.32 11.67 -18.64 11.34 -20 11 C-13.7706556 6.52410069 -7.29363271 2.50601739 0 0 Z " fill="#FCDDB0" transform="translate(90,12)"/>
<path d="M0 0 C7.00897689 1.72931766 13.50288191 3.83967342 20 7 C16.06204091 8.22419163 13.83887763 7.48320272 10 6 C10 5.34 10 4.68 10 4 C8.906875 3.855625 7.81375 3.71125 6.6875 3.5625 C3 3 3 3 0 2 C0 1.34 0 0.68 0 0 Z " fill="#B6AFD2" transform="translate(303,129)"/>
<path d="M0 0 C1.73017508 0.45451184 3.45909877 0.91378857 5.1875 1.375 C6.15042969 1.63023437 7.11335938 1.88546875 8.10546875 2.1484375 C10.82210207 2.94766296 13.39137175 3.9031362 16 5 C16 5.33 16 5.66 16 6 C13.69 6 11.38 6 9 6 C9 5.34 9 4.68 9 4 C4.545 3.01 4.545 3.01 0 2 C0 1.34 0 0.68 0 0 Z " fill="#B7B1D2" transform="translate(328,139)"/>
<path d="M0 0 C1.27847309 3.61233001 0.71332411 6.04606751 -0.3125 9.6875 C-0.57675781 10.66074219 -0.84101562 11.63398437 -1.11328125 12.63671875 C-2 15 -2 15 -4 16 C-3.47606294 10.13190493 -2.23891142 5.45126259 0 0 Z " fill="#FBDAA8" transform="translate(7,101)"/>
<path d="M0 0 C5.41798672 0.69165788 10.6822785 1.75799248 16 3 C16 3.99 16 4.98 16 6 C12.50577615 5.19429304 9.14682647 4.08208283 5.75 2.9375 C4.67234375 2.57527344 3.5946875 2.21304688 2.484375 1.83984375 C1.66453125 1.56269531 0.8446875 1.28554687 0 1 C0 0.67 0 0.34 0 0 Z " fill="#B8B1D3" transform="translate(266,66)"/>
<path d="M0 0 C5.54050113 0.56825653 10.03715966 2.62886517 15 5 C15 5.33 15 5.66 15 6 C10.65873643 6.37210831 8.60340032 5.34221021 5 3 C3.34630643 2.30177383 1.68272986 1.62501395 0 1 C0 0.67 0 0.34 0 0 Z " fill="#C3BCD7" transform="translate(271,72)"/>
<path d="M0 0 C0.66 0 1.32 0 2 0 C2.69906942 1.59915881 3.38389468 3.20455045 4.0625 4.8125 C4.63677734 6.15248047 4.63677734 6.15248047 5.22265625 7.51953125 C6 10 6 10 5 13 C4.15930585 11.39967863 3.32768495 9.79458829 2.5 8.1875 C1.80390625 6.84751953 1.80390625 6.84751953 1.09375 5.48046875 C0 3 0 3 0 0 Z " fill="#97CDC8" transform="translate(9,320)"/>
<path d="M0 0 C1.32 0 2.64 0 4 0 C4 0.66 4 1.32 4 2 C5.65 2.33 7.3 2.66 9 3 C9 3.66 9 4.32 9 5 C5.22454612 3.90931332 2.52956528 3.0916909 0 0 Z " fill="#93CCC4" transform="translate(70,394)"/>
</svg>
